<svg width="24" height="24" viewBox="0 0 24 24" fill="none" xmlns="http://www.w3.org/2000/svg">
<rect x="0.5" y="0.5" width="23" height="23" rx="11.5" fill="white"/>
<rect x="0.5" y="0.5" width="23" height="23" rx="11.5" stroke="#00A3FF"/>
<mask id="mask0_21_5348" style="mask-type:alpha" maskUnits="userSpaceOnUse" x="2" y="2" width="20" height="20">
<rect x="2" y="2" width="20" height="20" fill="#D9D9D9"/>
</mask>
<g mask="url(#mask0_21_5348)">
<path d="M12 17.8332C11.7638 17.8332 11.5661 17.7532 11.4066 17.5932C11.2466 17.4337 11.1666 17.2359 11.1666 16.9998V12.8332H6.99996C6.76385 12.8332 6.56579 12.7532 6.40579 12.5932C6.24635 12.4337 6.16663 12.2359 6.16663 11.9998C6.16663 11.7637 6.24635 11.5657 6.40579 11.4057C6.56579 11.2462 6.76385 11.1665 6.99996 11.1665H11.1666V6.99984C11.1666 6.76373 11.2466 6.56567 11.4066 6.40567C11.5661 6.24623 11.7638 6.1665 12 6.1665C12.2361 6.1665 12.4341 6.24623 12.5941 6.40567C12.7536 6.56567 12.8333 6.76373 12.8333 6.99984V11.1665H17C17.2361 11.1665 17.4338 11.2462 17.5933 11.4057C17.7533 11.5657 17.8333 11.7637 17.8333 11.9998C17.8333 12.2359 17.7533 12.4337 17.5933 12.5932C17.4338 12.7532 17.2361 12.8332 17 12.8332H12.8333V16.9998C12.8333 17.2359 12.7536 17.4337 12.5941 17.5932C12.4341 17.7532 12.2361 17.8332 12 17.8332Z" fill="#00A3FF"/>
</g>
</svg>
