<svg className='mt-0.5' width="7" height="12" viewBox="0 0 7 12" fill="none" xmlns="http://www.w3.org/2000/svg">
                                <path d="M0.0251949 6.00005C0.0251949 5.86672 0.0501955 5.73771 0.100196 5.61305C0.150196 5.48771 0.216862 5.38338 0.300195 5.30005L4.9002 0.700048C5.08353 0.516715 5.31686 0.425049 5.6002 0.425049C5.88353 0.425049 6.11686 0.516715 6.3002 0.700048C6.48353 0.883382 6.5752 1.11672 6.5752 1.40005C6.5752 1.68338 6.48353 1.91672 6.3002 2.10005L2.40019 6.00005L6.3002 9.90005C6.48353 10.0834 6.57519 10.3167 6.57519 10.6C6.57519 10.8834 6.48353 11.1167 6.3002 11.3C6.11686 11.4834 5.88353 11.575 5.6002 11.575C5.31686 11.575 5.08353 11.4834 4.90019 11.3L0.300195 6.70005C0.200196 6.60005 0.129529 6.49172 0.0881955 6.37505C0.0461957 6.25838 0.0251949 6.13338 0.0251949 6.00005Z" fill="#00A3FF" />
                            </svg>