<svg width="249" height="49" viewBox="0 0 249 49" fill="none" xmlns="http://www.w3.org/2000/svg">
<path d="M76.6384 26.0686C76.6384 29.1357 74.1492 31.1137 71.0599 31.1137H63.8145V13.8447H70.5709C73.5713 13.8447 76.0161 15.8005 76.0161 18.7787C76.0161 20.2011 75.4382 21.3346 74.5048 22.157C75.7938 22.9793 76.6162 24.3128 76.6162 26.0464L76.6384 26.0686ZM67.7483 17.5563V20.6234H70.5487C71.4377 20.6234 72.06 19.9789 72.06 19.0899C72.06 18.2009 71.4599 17.5563 70.5487 17.5563H67.7483ZM72.6823 25.7797C72.6823 24.824 72.0378 24.135 71.0599 24.135H67.7483V27.4466H71.0599C72.0378 27.4466 72.6823 26.7576 72.6823 25.8019V25.7797Z" fill="#00A3FF"/>
<path d="M88.9738 27.3132V31.1137H78.8613V13.8447H82.7952V27.3132H88.9516H88.9738Z" fill="#00A3FF"/>
<path d="M89.2168 22.4907C89.2168 17.4011 93.2396 13.5117 98.1958 13.5117C103.152 13.5117 107.175 17.4011 107.175 22.4907C107.175 27.5803 103.152 31.4697 98.1958 31.4697C93.2396 31.4697 89.2168 27.5803 89.2168 22.4907ZM103.219 22.4907C103.219 19.4014 100.996 17.3567 98.1958 17.3567C95.3954 17.3567 93.1729 19.4014 93.1729 22.4907C93.1729 25.58 95.3954 27.6247 98.1958 27.6247C100.996 27.6247 103.219 25.58 103.219 22.4907Z" fill="#00A3FF"/>
<path d="M108.889 22.4907C108.889 17.4011 112.667 13.5117 117.868 13.5117C121.001 13.5117 123.757 15.0675 125.269 17.5123L121.868 19.4903C121.113 18.1568 119.623 17.3789 117.868 17.3789C114.801 17.3789 112.845 19.4236 112.845 22.5129C112.845 25.6022 114.823 27.647 117.868 27.647C119.623 27.647 121.113 26.8691 121.868 25.5356L125.269 27.5136C123.78 29.9584 121.024 31.5141 117.868 31.5141C112.667 31.5141 108.889 27.6247 108.889 22.5352V22.4907Z" fill="#00A3FF"/>
<path d="M136.825 31.1137L131.291 23.1349V31.1137H127.357V13.8447H131.291V21.3346L136.559 13.8447H141.048L135.225 22.2459L141.293 31.0915H136.803L136.825 31.1137Z" fill="#00A3FF"/>
<path d="M160.292 31.1137H156.336V21.0679L151.869 28.38H151.425L146.957 21.0679V31.1137H143.023V13.8447H146.957L151.647 21.5124L156.336 13.8447H160.292V31.1137Z" fill="#00A3FF"/>
<path d="M174.342 27.3132V31.1137H163.496V13.8447H174.231V17.6452H167.452V20.5123H173.609V24.2684H167.452V27.3354H174.364L174.342 27.3132Z" fill="#00A3FF"/>
<path d="M192.1 22.4903C192.1 27.3799 188.477 31.1137 183.721 31.1137H176.809V13.8447H183.721C188.477 13.8447 192.1 17.6008 192.1 22.4681V22.4903ZM188.299 22.4903C188.299 19.5344 186.432 17.6675 183.721 17.6675H180.765V27.3354H183.721C186.432 27.3354 188.299 25.4685 188.299 22.5126V22.4903Z" fill="#00A3FF"/>
<path d="M213.168 19.201C213.168 22.2236 210.901 24.5351 207.789 24.5351H203.233V31.1137H201.922V13.8447H207.789C210.901 13.8447 213.168 16.1339 213.168 19.201ZM211.857 19.201C211.857 16.8007 210.145 15.0893 207.789 15.0893H203.233V23.2904H207.789C210.145 23.2904 211.857 21.5569 211.857 19.201Z" fill="white"/>
<path d="M223.391 24.0461H217.946V31.1137H216.635V13.8447H223.436C226.236 13.8447 228.547 16.1339 228.547 18.9565C228.547 21.2902 226.947 23.2682 224.747 23.8683L229.036 31.1137H227.525L223.391 24.0461ZM217.946 22.8015H223.436C225.525 22.8015 227.236 21.0679 227.236 18.9565C227.236 16.8451 225.525 15.0893 223.436 15.0893H217.946V22.8015Z" fill="white"/>
<path d="M231.014 22.4907C231.014 17.5567 234.925 13.6006 239.904 13.6006C244.882 13.6006 248.794 17.5789 248.794 22.4907C248.794 27.4024 244.882 31.3808 239.904 31.3808C234.925 31.3808 231.014 27.4024 231.014 22.4907ZM247.505 22.4907C247.505 18.2457 244.171 14.8452 239.904 14.8452C235.637 14.8452 232.303 18.2457 232.303 22.4907C232.303 26.7357 235.637 30.1362 239.904 30.1362C244.171 30.1362 247.505 26.7357 247.505 22.4907Z" fill="white"/>
<path d="M32.7703 20.8026L32.6996 24.2697L29.8008 22.713V19.2812L32.7703 20.8026Z" fill="#C1C1C1"/>
<path d="M48.3968 33.2207L36.1299 40.3319L31.7109 42.8791V37.8907L36.1299 35.3434L46.2404 29.5059L48.3968 33.2207Z" fill="white"/>
<path d="M46.8398 15.9206L32.6992 24.2701L32.7699 20.8029L44.7894 13.7979L46.8398 15.9206Z" fill="white"/>
<path d="M44.7898 13.7982L32.7703 20.8033L29.8008 19.3173L41.9263 12.3477L44.7898 13.7982Z" fill="#D8D8D8"/>
<path d="M29.5193 3.85663L19.4795 9.65879L14.8484 12.3122L10.4648 9.94182L15.0605 7.21764L27.3629 0.106445L29.5193 3.85663Z" fill="#D8D8D8"/>
<path d="M44.1173 14.2224L22.8711 2.72419L27.4668 0L48.5009 11.6043L44.1173 14.2224Z" fill="#D8D8D8"/>
<path d="M44.1191 35.6976L48.5027 33.2211V11.6045L44.1191 14.2225V35.6976Z" fill="white"/>
<path d="M21.2462 27.5251L0 16.0269L4.59569 13.3027L25.6652 24.9071L21.2462 27.5251Z" fill="#D8D8D8"/>
<path d="M21.2461 48.9994L25.665 46.5229V24.9062L21.2461 27.5243V48.9994Z" fill="white"/>
</svg>
