<svg width="18" height="18" viewBox="0 0 18 18" fill="none" xmlns="http://www.w3.org/2000/svg">
<path d="M9 0C4.03812 0 0 4.03812 0 9C0 13.9619 4.03812 18 9 18C13.9619 18 18 13.9619 18 9C18 4.03812 13.9619 0 9 0ZM9 16.7331C4.75073 16.7331 1.26686 13.2757 1.26686 9C1.26686 4.72434 4.72434 1.26686 9 1.26686C13.2757 1.26686 16.7331 4.72434 16.7331 9C16.7331 13.2757 13.2493 16.7331 9 16.7331Z" fill="#C9311A"/>
<path d="M13.1437 8.28711H4.85633C4.51322 8.28711 4.2229 8.57743 4.2229 8.92054C4.2229 9.26365 4.51322 9.55397 4.85633 9.55397H13.1437C13.4868 9.55397 13.7772 9.26365 13.7772 8.92054C13.7772 8.57743 13.4868 8.28711 13.1437 8.28711Z" fill="#C9311A"/>
</svg>
