<svg width="22" height="23" viewBox="0 0 22 23" fill="none" xmlns="http://www.w3.org/2000/svg">
<path fill-rule="evenodd" stroke="currentColor" clip-rule="evenodd" d="M13.7004 11.9263C13.5242 11.428 13.1979 10.9965 12.7662 10.6913C12.3346 10.3861 11.819 10.2223 11.2904 10.2224V9.5835H10.0126V10.2224C9.33485 10.2224 8.68482 10.4916 8.20555 10.9709C7.72628 11.4502 7.45703 12.1002 7.45703 12.778C7.45703 13.4558 7.72628 14.1058 8.20555 14.5851C8.68482 15.0643 9.33485 15.3336 10.0126 15.3336V17.8892C9.45679 17.8892 8.98336 17.5346 8.80703 17.0375C8.78087 16.9562 8.73866 16.881 8.68291 16.8162C8.62716 16.7515 8.55899 16.6986 8.48244 16.6607C8.40589 16.6228 8.32252 16.6006 8.23724 16.5955C8.15197 16.5903 8.06653 16.6023 7.98599 16.6308C7.90544 16.6593 7.83142 16.7036 7.7683 16.7612C7.70518 16.8187 7.65425 16.8884 7.61851 16.966C7.58278 17.0435 7.56296 17.1275 7.56025 17.2129C7.55753 17.2983 7.57197 17.3833 7.6027 17.4631C7.77885 17.9614 8.10521 18.3929 8.53682 18.6981C8.96843 19.0033 9.48404 19.1671 10.0126 19.167V19.8059H11.2904V19.167C11.9682 19.167 12.6182 18.8978 13.0975 18.4185C13.5768 17.9392 13.846 17.2892 13.846 16.6114C13.846 15.9336 13.5768 15.2836 13.0975 14.8043C12.6182 14.325 11.9682 14.0558 11.2904 14.0558V11.5002C11.5547 11.5001 11.8125 11.582 12.0283 11.7345C12.2441 11.887 12.4073 12.1027 12.4954 12.3519C12.5518 12.5116 12.6694 12.6425 12.8223 12.7156C12.898 12.7517 12.9801 12.7727 13.0639 12.7771C13.1477 12.7816 13.2315 12.7695 13.3106 12.7416C13.3898 12.7136 13.4626 12.6704 13.525 12.6143C13.5874 12.5582 13.6382 12.4904 13.6743 12.4147C13.7105 12.339 13.7315 12.2569 13.7359 12.1731C13.7404 12.0893 13.7283 12.0055 13.7004 11.9263ZM10.0126 11.5002C9.67374 11.5002 9.34873 11.6348 9.10909 11.8745C8.86946 12.1141 8.73483 12.4391 8.73483 12.778C8.73483 13.1169 8.86946 13.4419 9.10909 13.6815C9.34873 13.9212 9.67374 14.0558 10.0126 14.0558V11.5002ZM11.2904 17.8892C11.6293 17.8892 11.9543 17.7546 12.194 17.5149C12.4336 17.2753 12.5682 16.9503 12.5682 16.6114C12.5682 16.2725 12.4336 15.9475 12.194 15.7079C11.9543 15.4682 11.6293 15.3336 11.2904 15.3336V17.8892Z" stroke-width="1" fill="#0D2A52"/>
<path fill-rule="evenodd" stroke="currentColor" stroke-width="1" clip-rule="evenodd" d="M3.7215 1.67456C5.28936 0.907239 7.86158 0 10.6766 0C13.4328 0 15.9373 0.869543 17.4968 1.62664L17.585 1.66945C18.0552 1.90201 18.4347 2.12179 18.7018 2.30004L16.3417 5.7501C21.7826 11.3124 25.9853 22.9985 10.6766 22.9985C-4.63212 22.9985 -0.542519 11.5245 4.94564 5.7501L2.60087 2.30004C2.78168 2.18185 3.01105 2.04448 3.28449 1.89881C3.41994 1.82598 3.56561 1.7508 3.7215 1.67456ZM14.825 5.70474L16.7142 2.94278C14.9572 3.06928 12.8667 3.48201 10.8542 4.06468C9.41666 4.47997 7.81941 4.41672 6.34036 4.14391C5.96762 4.0749 5.59747 3.99264 5.23059 3.89729L6.45727 5.70346C9.08635 6.63945 12.1952 6.63945 14.825 5.70474ZM5.71934 6.79151C8.79565 7.97987 12.493 7.97987 15.5693 6.79023C16.853 8.14414 17.9272 9.68236 18.7561 11.3539C19.6199 13.116 20.0901 14.8774 20.0135 16.3955C19.9394 17.8605 19.3631 19.1121 18.0469 20.0423C16.6752 21.0115 14.3681 21.7207 10.6759 21.7207C6.9799 21.7207 4.66196 21.0237 3.27747 20.0653C1.95175 19.1472 1.36971 17.9122 1.28729 16.467C1.20104 14.9656 1.66105 13.2131 2.52165 11.4389C3.34263 9.74706 4.48818 8.11851 5.71934 6.79151ZM4.98461 2.50193C5.49573 2.65399 6.02985 2.78624 6.57164 2.88655C7.94527 3.13956 9.32274 3.17661 10.4983 2.83608C11.8682 2.43683 13.2616 2.12296 14.6703 1.89626C13.4948 1.54231 12.1198 1.2778 10.6759 1.2778C8.47492 1.2778 6.42213 1.89178 4.98461 2.50193Z" fill="#0D2A52"/>
</svg>