<svg width="1440" height="804" viewBox="0 0 1440 804" fill="none" xmlns="http://www.w3.org/2000/svg">
<g clip-path="url(#clip0_1997_2403)">
<rect width="1440" height="804" fill="#FAFDFF"/>
<mask id="mask0_1997_2403" style="mask-type:alpha" maskUnits="userSpaceOnUse" x="0" y="0" width="1452" height="876">
<path d="M1452 0H0V876H1452V0Z" fill="#EEF7FB"/>
</mask>
<g mask="url(#mask0_1997_2403)">
<g opacity="0.24">
<path d="M392.614 799.045V751.169L347.475 725.091V776.348L305.45 800.642V750.27L261.101 775.898L218.285 751.091V704.099C218.93 703.921 219.5 703.54 219.911 703.012C220.321 702.484 220.55 701.837 220.563 701.168C220.554 700.901 220.512 700.635 220.439 700.378L261.488 676.656L261.875 676.424V624.268L217.573 649.974L173.998 624.795L130.408 649.974L87.593 625.245V575.771L131.895 550.097L87.531 524.468V473.212L42.795 499.057L42.407 499.29V548.763L2.52 525.709C2.588 525.451 2.625 525.185 2.62801 524.918C2.61601 524.251 2.39 523.606 1.98199 523.078C1.575 522.55 1.00801 522.168 0.367004 521.988V424.622L43.569 399.661L43.956 399.443V347.288L-0.841995 373.164L-1.229 373.397V423.769L-44.029 448.576L-86.039 424.219L-43.595 399.707L-43.208 399.49V347.334L-87.9598 373.18L-88.3471 373.412V473.258L-128.235 450.204C-128.154 449.948 -128.112 449.681 -128.111 449.413C-128.124 448.744 -128.353 448.097 -128.763 447.569C-129.173 447.041 -129.743 446.66 -130.388 446.483V398.591L-173.188 373.862L-131.163 349.567L-130.388 350.017V349.117L-129.613 348.668L-130.388 348.234V297.845L-171.809 273.892C-171.741 273.633 -171.704 273.368 -171.701 273.101C-171.701 272.278 -172.027 271.49 -172.608 270.908C-173.189 270.327 -173.977 270 -174.799 270C-175.621 270 -176.409 270.327 -176.99 270.908C-177.571 271.49 -177.897 272.278 -177.897 273.101C-177.885 273.768 -177.659 274.413 -177.251 274.941C-176.844 275.469 -176.277 275.851 -175.636 276.031V323.024L-220 348.652L-176.41 373.846L-218.838 398.358L-219.225 398.575V448.948L-220 449.398L-219.225 449.847V500.22L-176.425 525.027L-218.869 549.554L-219.257 549.771V601.927L-174.334 575.988L-173.947 575.771V526.282V475.01L-133.3 451.522C-132.922 451.907 -132.445 452.18 -131.922 452.312V500.204L-89.1061 525.011L-131.534 549.523L-131.922 549.755V600.144L-172.537 623.617C-172.816 623.327 -173.151 623.097 -173.521 622.94C-173.891 622.783 -174.289 622.702 -174.691 622.702C-175.512 622.702 -176.3 623.029 -176.881 623.61C-177.462 624.192 -177.789 624.981 -177.789 625.803C-177.777 626.47 -177.55 627.115 -177.143 627.643C-176.735 628.171 -176.169 628.553 -175.527 628.733V726.037L-218.792 751.029L-219.179 751.262V803.418V852.922L-175.589 878.116V879L-174.814 878.566L-174.04 879V878.116L-130.837 853.155L-130.45 852.922V800.627L-172.661 825.015C-172.941 824.727 -173.276 824.5 -173.646 824.345C-174.016 824.191 -174.414 824.112 -174.814 824.116C-175.215 824.114 -175.612 824.193 -175.982 824.347C-176.352 824.502 -176.687 824.729 -176.968 825.015L-216.778 801.945L-175.481 778.084L-131.116 752.456L-86.767 778.084V726.843L-43.595 701.897L-43.208 701.68V653.788C-42.566 653.608 -42 653.226 -41.592 652.698C-41.185 652.17 -40.958 651.524 -40.946 650.858C-40.946 650.035 -41.273 649.246 -41.854 648.665C-42.435 648.083 -43.223 647.757 -44.045 647.757C-44.866 647.757 -45.654 648.083 -46.235 648.665C-46.816 649.246 -47.143 650.035 -47.143 650.858C-47.142 651.126 -47.1 651.393 -47.019 651.648L-88.0683 675.369L-88.4555 675.602V725.045L-130.341 700.796V600.934L-87.5881 576.221L-43.224 601.849V550.577L-2.577 527.089C-2.198 527.474 -1.72099 527.747 -1.198 527.879V575.771L40.254 599.71C40.188 599.968 40.151 600.233 40.146 600.5C40.15 600.772 40.187 601.043 40.254 601.307L-0.794998 625.028L-1.183 625.245V725.928L-41.582 749.277C-41.865 748.884 -42.237 748.562 -42.668 748.339C-43.098 748.115 -43.575 747.996 -44.06 747.991C-44.882 747.991 -45.67 748.317 -46.251 748.899C-46.832 749.48 -47.158 750.269 -47.158 751.091C-47.146 751.758 -46.92 752.404 -46.512 752.931C-46.105 753.459 -45.538 753.842 -44.897 754.022V803.356L-1.306 778.177V827.619L43.817 853.697V801.526L1.064 776.813L43.12 752.502L83.782 776.006C83.701 776.262 83.659 776.529 83.658 776.797C83.658 777.619 83.985 778.408 84.566 778.99C85.147 779.571 85.935 779.898 86.756 779.898C87.578 779.898 88.366 779.571 88.947 778.99C89.528 778.408 89.855 777.619 89.855 776.797C89.842 776.128 89.613 775.481 89.203 774.953C88.792 774.425 88.222 774.044 87.577 773.867V676.501L130.393 651.772L172.434 676.052L130.006 700.579L129.618 700.796V751.169L128.844 751.618L129.618 752.068V801.542L86.416 826.503L86.028 826.72V878.876L130.78 853.031L131.167 852.798V803.325L173.162 827.619V828.519L173.936 828.069L218.285 853.697V804.922C218.811 804.785 219.292 804.512 219.68 804.131L260.326 827.619V878.86L303.901 853.682L348.653 827.821L349.04 827.604V778.146L388.928 801.263C388.848 801.524 388.806 801.795 388.804 802.069C388.804 802.891 389.13 803.68 389.711 804.261C390.292 804.843 391.08 805.17 391.902 805.17C392.724 805.17 393.512 804.843 394.093 804.261C394.674 803.68 395 802.891 395 802.069C395.001 801.369 394.766 800.69 394.333 800.141C393.9 799.593 393.294 799.206 392.614 799.045ZM-86.8135 374.234L-44.773 349.955V398.529L-86.8135 422.824V374.234ZM-175.543 574.903L-217.583 599.198V550.624L-175.543 526.329V574.903ZM-131.891 803.309V851.883L-173.932 876.178V830.085C-173.29 829.905 -172.723 829.522 -172.316 828.994C-171.908 828.467 -171.682 827.821 -171.67 827.154C-171.673 826.887 -171.71 826.622 -171.778 826.364L-131.891 803.309ZM-175.481 830.085V876.178L-217.522 851.883V803.309L-177.634 826.364C-177.702 826.622 -177.739 826.887 -177.742 827.154C-177.73 827.821 -177.504 828.467 -177.096 828.994C-176.689 829.522 -176.122 829.905 -175.481 830.085ZM303.901 801.526L261.875 825.806V777.247L303.901 752.952V801.526ZM216.736 799.061C216.218 799.196 215.743 799.463 215.358 799.836L175.485 776.797L216.736 752.952V799.061ZM174.711 725.975V677.401L214.599 700.486C214.517 700.742 214.476 701.008 214.475 701.277C214.487 701.944 214.713 702.589 215.121 703.117C215.528 703.645 216.095 704.027 216.736 704.207V750.301L174.711 725.975ZM216.736 698.316C216.213 698.448 215.736 698.721 215.358 699.106L175.485 676.052L216.736 652.222V698.316ZM173.936 727.324L216.024 751.65L196.924 762.673L173.998 775.929L131.895 751.65L150.995 740.611L173.936 727.324ZM174.711 778.146L214.599 801.263C214.519 801.524 214.477 801.795 214.475 802.069C214.478 802.337 214.52 802.603 214.599 802.86L174.711 825.899V778.146ZM260.326 675.68L219.68 699.168C219.292 698.787 218.811 698.514 218.285 698.378V651.385L260.326 627.09V675.68ZM43.956 597.632V551.538L85.982 575.833V624.408L46.11 601.26C46.177 600.996 46.213 600.726 46.218 600.454C46.196 599.795 45.965 599.16 45.559 598.642C45.152 598.123 44.591 597.748 43.956 597.57V597.632ZM43.956 603.508C44.475 603.364 44.949 603.092 45.335 602.717L85.207 625.756L43.956 649.586V603.508ZM86.772 574.484L44.731 550.097L65.349 538.189L86.756 525.786L128.797 550.097L86.772 574.484ZM43.956 500.282L85.982 475.987V524.561L43.956 548.856V500.282ZM0.367004 374.342L42.407 350.063V398.637L0.367004 422.932V374.342ZM-1.183 474.204L-14.938 482.142L-43.208 498.484V449.909L-1.183 425.614V474.204ZM-44.757 548.856L-65.7775 536.717L-86.798 524.561V475.987L-65.7775 488.127L-44.757 500.282V548.856ZM-86.798 425.614L-44.757 449.909V498.484L-65.7775 486.344L-86.798 474.127V425.614ZM-131.937 446.529C-132.458 446.669 -132.933 446.941 -133.316 447.32L-173.963 423.831V375.257L-131.937 399.537V446.529ZM-131.937 298.791V347.381L-173.963 323.086V276.093C-173.439 275.961 -172.962 275.688 -172.584 275.302L-131.937 298.791ZM-174.737 324.435L-132.712 348.714L-173.963 372.559L-174.737 373.009L-175.512 372.559L-216.778 348.714L-174.737 324.435ZM-217.553 399.537L-175.512 375.257V423.831L-217.553 448.126V399.537ZM-217.553 450.808L-175.512 475.103V523.678L-217.553 499.383V450.808ZM-174.737 473.755L-216.778 449.46L-197.678 438.421L-174.737 425.165L-134.059 448.607C-134.141 448.863 -134.182 449.129 -134.183 449.398C-134.182 449.666 -134.141 449.933 -134.059 450.188L-174.737 473.755ZM-130.388 452.39C-129.859 452.262 -129.376 451.988 -128.994 451.599L-88.3471 475.088V523.678L-130.388 499.383V452.39ZM-130.388 550.639L-88.3471 526.36V574.903L-130.388 599.198V550.639ZM-173.932 628.687C-173.29 628.507 -172.723 628.124 -172.316 627.597C-171.908 627.069 -171.682 626.423 -171.67 625.756C-171.673 625.489 -171.71 625.224 -171.778 624.966L-131.891 601.911V650.485L-173.932 674.78V628.687ZM-131.891 700.858L-173.932 725.138V676.563L-131.891 652.284V700.858ZM-175.543 776.394L-217.583 800.689V752.053L-175.543 727.758V776.394ZM-173.994 726.936L-131.953 702.641V751.231L-173.994 775.51V726.936ZM-86.8601 676.563L-46.213 653.075C-45.829 653.46 -45.347 653.734 -44.819 653.865V700.858L-86.8601 725.138V676.563ZM-88.4091 727.804V775.51L-130.341 751.169V702.579L-88.3471 726.843V727.758L-88.4091 727.804ZM-44.85 599.229L-86.798 574.903V526.329L-65.7775 538.469L-44.757 550.608L-44.85 599.229ZM-43.301 548.856V500.282L-19.291 486.406L-1.276 475.987V522.081C-1.91701 522.261 -2.48401 522.643 -2.89101 523.171C-3.29901 523.699 -3.52501 524.344 -3.537 525.011C-3.536 525.279 -3.49399 525.546 -3.41299 525.802L-43.301 548.856ZM0.367004 574.903V527.91C0.891998 527.774 1.373 527.501 1.761 527.12L42.407 550.608V597.601C41.887 597.74 41.412 598.013 41.029 598.392L0.367004 574.903ZM0.367004 626.175L40.982 602.655C41.377 603.027 41.855 603.298 42.376 603.446V650.423L41.602 650.873L0.335007 674.718L0.367004 626.175ZM0.367004 726.952L42.407 702.657V751.246L0.367004 775.526V726.952ZM42.407 700.874L0.367004 725.153V676.579L42.407 652.299V700.874ZM-43.286 800.627V753.975C-42.641 753.798 -42.071 753.417 -41.66 752.889C-41.25 752.361 -41.021 751.714 -41.008 751.045C-41.008 750.936 -41.008 750.843 -41.008 750.75L-1.214 727.758V776.332L-43.286 800.627ZM42.33 851L0.304001 826.705V778.131L42.33 802.41V851ZM85.982 773.867C85.459 773.999 84.982 774.272 84.603 774.658L43.956 751.169V702.595L85.982 726.843V773.867ZM43.956 700.796V652.222L85.982 676.501V725.076L43.956 700.796ZM86.772 675.168L44.731 650.873L86.756 626.578L87.531 627.028L128.797 650.873L86.772 675.168ZM173.936 626.578L216.024 650.873L174.773 674.718L173.998 675.168L173.224 674.718L131.895 650.873L173.936 626.578ZM131.121 701.695L173.162 677.401V725.975L131.121 750.27V701.695ZM129.572 851.899L87.531 876.194V827.619L129.572 803.325V851.899ZM131.121 801.542V752.952L173.162 777.247V825.821L131.121 801.542ZM175.485 827.17L215.358 804.131C215.741 804.51 216.216 804.782 216.736 804.922V851.015L175.485 827.17ZM218.285 799.045V752.952L260.326 777.247V825.821L220.439 802.813C220.51 802.555 220.552 802.29 220.563 802.022C220.56 801.345 220.336 800.688 219.924 800.15C219.513 799.613 218.938 799.225 218.285 799.045ZM261.875 876.178V827.619L303.901 803.325V851.883L261.875 876.178ZM347.491 826.72L305.45 851V802.425L347.491 778.146V826.72ZM349.04 776.348V727.773L391.065 752.068V799.061C390.541 799.193 390.06 799.46 389.671 799.836L349.04 776.348Z" fill="#54B2D3"/>
<path d="M1046.39 69.9545V117.831L1091.52 143.909V92.6525L1133.55 68.3576V118.73L1177.9 93.1021L1220.71 117.909V164.901C1220.07 165.079 1219.5 165.46 1219.09 165.988C1218.68 166.516 1218.45 167.163 1218.44 167.832C1218.45 168.099 1218.49 168.365 1218.56 168.622L1177.51 192.344L1177.12 192.576V244.732L1221.43 219.026L1265 244.205L1308.59 219.026L1351.41 243.755V293.229L1307.1 318.903L1351.47 344.532V395.788L1396.21 369.943L1396.59 369.71V320.237L1436.48 343.291C1436.41 343.549 1436.38 343.815 1436.37 344.082C1436.38 344.749 1436.61 345.394 1437.02 345.922C1437.43 346.45 1437.99 346.832 1438.63 347.012V444.378L1395.43 469.339L1395.04 469.557V521.712L1439.84 495.836L1440.23 495.603V445.231L1483.03 420.424L1525.04 444.781L1482.6 469.293L1482.21 469.51V521.666L1526.96 495.82L1527.35 495.588V395.742L1567.23 418.796C1567.15 419.052 1567.11 419.319 1567.11 419.587C1567.12 420.256 1567.35 420.903 1567.76 421.431C1568.17 421.959 1568.74 422.34 1569.39 422.517V470.409L1612.19 495.138L1570.16 519.433L1569.39 518.983V519.883L1568.61 520.332L1569.39 520.766V571.155L1610.81 595.108C1610.74 595.367 1610.7 595.632 1610.7 595.899C1610.7 596.722 1611.03 597.51 1611.61 598.092C1612.19 598.673 1612.98 599 1613.8 599C1614.62 599 1615.41 598.673 1615.99 598.092C1616.57 597.51 1616.9 596.722 1616.9 595.899C1616.89 595.232 1616.66 594.587 1616.25 594.059C1615.84 593.531 1615.28 593.149 1614.64 592.969V545.976L1659 520.348L1615.41 495.154L1657.84 470.642L1658.23 470.425V420.052L1659 419.602L1658.23 419.153V368.78L1615.43 343.973L1657.87 319.446L1658.26 319.229V267.073L1613.33 293.012L1612.95 293.229V342.718V393.99L1572.3 417.478C1571.92 417.093 1571.44 416.82 1570.92 416.688V368.796L1528.11 343.989L1570.53 319.477L1570.92 319.245V268.856L1611.54 245.383C1611.82 245.673 1612.15 245.903 1612.52 246.06C1612.89 246.217 1613.29 246.298 1613.69 246.298C1614.51 246.298 1615.3 245.971 1615.88 245.39C1616.46 244.808 1616.79 244.019 1616.79 243.197C1616.78 242.53 1616.55 241.885 1616.14 241.357C1615.74 240.829 1615.17 240.447 1614.53 240.267V142.963L1657.79 117.971L1658.18 117.738V65.5823V16.0778L1614.59 -9.1163V-10L1613.81 -9.5659L1613.04 -10V-9.1163L1569.84 15.8453L1569.45 16.0778V68.3732L1611.66 43.9852C1611.94 44.2726 1612.28 44.5004 1612.65 44.655C1613.02 44.8095 1613.41 44.8876 1613.81 44.8844C1614.22 44.8858 1614.61 44.8069 1614.98 44.6525C1615.35 44.4981 1615.69 44.2712 1615.97 43.9852L1655.78 67.0553L1614.48 90.916L1570.12 116.544L1525.77 90.916V142.157L1482.6 167.103L1482.21 167.32V215.212C1481.57 215.392 1481 215.774 1480.59 216.302C1480.18 216.83 1479.96 217.476 1479.95 218.142C1479.95 218.965 1480.27 219.754 1480.85 220.335C1481.43 220.917 1482.22 221.243 1483.04 221.243C1483.87 221.243 1484.65 220.917 1485.24 220.335C1485.82 219.754 1486.14 218.965 1486.14 218.142C1486.14 217.874 1486.1 217.607 1486.02 217.352L1527.07 193.631L1527.46 193.398V143.956L1569.34 168.204V268.066L1526.59 292.779L1482.22 267.151V318.423L1441.58 341.911C1441.2 341.526 1440.72 341.253 1440.2 341.121V293.229L1398.75 269.29C1398.81 269.032 1398.85 268.767 1398.85 268.5C1398.85 268.228 1398.81 267.957 1398.75 267.693L1439.8 243.972L1440.18 243.755V143.072L1480.58 119.723C1480.87 120.116 1481.24 120.438 1481.67 120.661C1482.1 120.885 1482.58 121.004 1483.06 121.009C1483.88 121.009 1484.67 120.683 1485.25 120.101C1485.83 119.52 1486.16 118.731 1486.16 117.909C1486.15 117.242 1485.92 116.596 1485.51 116.068C1485.1 115.541 1484.54 115.158 1483.9 114.978V65.6444L1440.31 90.823V41.3805L1395.18 15.3026V67.4739L1437.94 92.1874L1395.88 116.498L1355.22 92.9935C1355.3 92.7378 1355.34 92.4713 1355.34 92.2029C1355.34 91.3805 1355.02 90.5918 1354.43 90.0102C1353.85 89.4287 1353.07 89.1021 1352.24 89.1021C1351.42 89.1021 1350.63 89.4287 1350.05 90.0102C1349.47 90.5918 1349.15 91.3805 1349.15 92.2029C1349.16 92.8718 1349.39 93.5186 1349.8 94.0468C1350.21 94.5749 1350.78 94.9559 1351.42 95.1331V192.499L1308.61 217.228L1266.57 192.948L1308.99 168.421L1309.38 168.204V117.831L1310.16 117.382L1309.38 116.932V67.4584L1352.58 42.4968L1352.97 42.2798V-9.876L1308.22 15.9693L1307.83 16.2019V65.6754L1265.84 41.3805V40.4812L1265.06 40.9309L1220.71 15.3026V64.0785C1220.19 64.2151 1219.71 64.4878 1219.32 64.8692L1178.67 41.3805V-9.8604L1135.1 15.3182L1090.35 41.1789L1089.96 41.396V90.8541L1050.07 67.7374C1050.15 67.4761 1050.19 67.2045 1050.2 66.9312C1050.2 66.1088 1049.87 65.3201 1049.29 64.7386C1048.71 64.1571 1047.92 63.8304 1047.1 63.8304C1046.28 63.8304 1045.49 64.1571 1044.91 64.7386C1044.33 65.3201 1044 66.1088 1044 66.9312C1044 67.6305 1044.23 68.3098 1044.67 68.8586C1045.1 69.4074 1045.71 69.7936 1046.39 69.9545ZM1525.81 494.766L1483.77 519.045V470.471L1525.81 446.176V494.766ZM1614.54 294.097L1656.58 269.802V318.376L1614.54 342.671V294.097ZM1570.89 65.6909V17.1166L1612.93 -7.1783V38.9153C1612.29 39.0953 1611.72 39.4777 1611.32 40.0055C1610.91 40.5334 1610.68 41.1787 1610.67 41.8456C1610.67 42.1126 1610.71 42.3782 1610.78 42.6363L1570.89 65.6909ZM1614.48 38.9153V-7.1783L1656.52 17.1166V65.6909L1616.63 42.6363C1616.7 42.3782 1616.74 42.1126 1616.74 41.8456C1616.73 41.1787 1616.5 40.5334 1616.1 40.0055C1615.69 39.4777 1615.12 39.0953 1614.48 38.9153ZM1135.1 67.4739L1177.12 43.1945V91.7532L1135.1 116.048V67.4739ZM1222.26 69.939C1222.78 69.8043 1223.26 69.5372 1223.64 69.1638L1263.51 92.2029L1222.26 116.048V69.939ZM1264.29 143.025V191.599L1224.4 168.514C1224.48 168.258 1224.52 167.992 1224.53 167.723C1224.51 167.056 1224.29 166.411 1223.88 165.883C1223.47 165.355 1222.91 164.973 1222.26 164.793V118.699L1264.29 143.025ZM1222.26 170.685C1222.79 170.552 1223.26 170.279 1223.64 169.894L1263.51 192.948L1222.26 216.778V170.685ZM1265.06 141.676L1222.98 117.35L1242.08 106.327L1265 93.071L1307.1 117.35L1288 128.389L1265.06 141.676ZM1264.29 90.8541L1224.4 67.7374C1224.48 67.4761 1224.52 67.2045 1224.53 66.9312C1224.52 66.663 1224.48 66.3968 1224.4 66.1405L1264.29 43.1014V90.8541ZM1178.67 193.32L1219.32 169.832C1219.71 170.213 1220.19 170.486 1220.71 170.622V217.615L1178.67 241.91V193.32ZM1395.04 271.368V317.462L1353.02 293.167V244.592L1392.89 267.74C1392.82 268.004 1392.79 268.274 1392.78 268.546C1392.8 269.205 1393.03 269.84 1393.44 270.358C1393.85 270.877 1394.41 271.252 1395.04 271.43V271.368ZM1395.04 265.492C1394.53 265.636 1394.05 265.908 1393.66 266.283L1353.79 243.244L1395.04 219.414V265.492ZM1352.23 294.516L1394.27 318.903L1373.65 330.811L1352.24 343.214L1310.2 318.903L1352.23 294.516ZM1395.04 368.718L1353.02 393.013V344.439L1395.04 320.144V368.718ZM1438.63 494.658L1396.59 518.937V470.363L1438.63 446.068V494.658ZM1440.18 394.796L1453.94 386.858L1482.21 370.516V419.091L1440.18 443.386V394.796ZM1483.76 320.144L1504.78 332.283L1525.8 344.439V393.013L1504.78 380.873L1483.76 368.718V320.144ZM1525.8 443.386L1483.76 419.091V370.516L1504.78 382.656L1525.8 394.873V443.386ZM1570.94 422.471C1571.46 422.331 1571.93 422.059 1572.32 421.68L1612.96 445.169V493.743L1570.94 469.463V422.471ZM1570.94 570.209V521.619L1612.96 545.914V592.907C1612.44 593.039 1611.96 593.312 1611.58 593.698L1570.94 570.209ZM1613.74 544.565L1571.71 520.286L1612.96 496.441L1613.74 495.991L1614.51 496.441L1655.78 520.286L1613.74 544.565ZM1656.55 469.463L1614.51 493.743V445.169L1656.55 420.874V469.463ZM1656.55 418.192L1614.51 393.897V345.322L1656.55 369.617V418.192ZM1613.74 395.245L1655.78 419.54L1636.68 430.579L1613.74 443.835L1573.06 420.393C1573.14 420.137 1573.18 419.871 1573.18 419.602C1573.18 419.334 1573.14 419.067 1573.06 418.812L1613.74 395.245ZM1569.39 416.61C1568.86 416.738 1568.38 417.012 1567.99 417.401L1527.35 393.912V345.322L1569.39 369.617V416.61ZM1569.39 318.361L1527.35 342.64V294.097L1569.39 269.802V318.361ZM1612.93 240.313C1612.29 240.493 1611.72 240.876 1611.32 241.403C1610.91 241.931 1610.68 242.577 1610.67 243.244C1610.67 243.511 1610.71 243.776 1610.78 244.034L1570.89 267.089V218.515L1612.93 194.22V240.313ZM1570.89 168.142L1612.93 143.862V192.437L1570.89 216.716V168.142ZM1614.54 92.6059L1656.58 68.3111V116.947L1614.54 141.242V92.6059ZM1612.99 142.064L1570.95 166.359V117.769L1612.99 93.4897V142.064ZM1525.86 192.437L1485.21 215.925C1484.83 215.54 1484.35 215.266 1483.82 215.135V168.142L1525.86 143.862V192.437ZM1527.41 141.196V93.4897L1569.34 117.831V166.421L1527.35 142.157V141.242L1527.41 141.196ZM1483.85 269.771L1525.8 294.097V342.671L1504.78 330.531L1483.76 318.392L1483.85 269.771ZM1482.3 320.144V368.718L1458.29 382.594L1440.28 393.013V346.919C1440.92 346.739 1441.48 346.357 1441.89 345.829C1442.3 345.301 1442.53 344.656 1442.54 343.989C1442.54 343.721 1442.49 343.454 1442.41 343.198L1482.3 320.144ZM1438.63 294.097V341.09C1438.11 341.226 1437.63 341.499 1437.24 341.88L1396.59 318.392V271.399C1397.11 271.26 1397.59 270.987 1397.97 270.608L1438.63 294.097ZM1438.63 242.825L1398.02 266.345C1397.62 265.973 1397.14 265.702 1396.62 265.554V218.577L1397.4 218.127L1438.66 194.282L1438.63 242.825ZM1438.63 142.048L1396.59 166.343V117.754L1438.63 93.4742V142.048ZM1396.59 168.126L1438.63 143.847V192.421L1396.59 216.701V168.126ZM1482.29 68.3732V115.025C1481.64 115.202 1481.07 115.583 1480.66 116.111C1480.25 116.639 1480.02 117.286 1480.01 117.955C1480.01 118.064 1480.01 118.157 1480.01 118.25L1440.21 141.242V92.668L1482.29 68.3732ZM1396.67 18.0003L1438.7 42.2953V90.8695L1396.67 66.5901V18.0003ZM1353.02 95.1331C1353.54 95.001 1354.02 94.7276 1354.4 94.3425L1395.04 117.831V166.405L1353.02 142.157V95.1331ZM1395.04 168.204V216.778L1353.02 192.499V143.924L1395.04 168.204ZM1352.23 193.832L1394.27 218.127L1352.24 242.422L1351.47 241.972L1310.2 218.127L1352.23 193.832ZM1265.06 242.422L1222.98 218.127L1264.23 194.282L1265 193.832L1265.78 194.282L1307.1 218.127L1265.06 242.422ZM1307.88 167.305L1265.84 191.599V143.025L1307.88 118.73V167.305ZM1309.43 17.1012L1351.47 -7.1938V41.3805L1309.43 65.6754V17.1012ZM1307.88 67.4584V116.048L1265.84 91.7532V43.1789L1307.88 67.4584ZM1263.51 41.8301L1223.64 64.8692C1223.26 64.4902 1222.78 64.2176 1222.26 64.0785V17.9848L1263.51 41.8301ZM1220.71 69.9545V116.048L1178.67 91.7532V43.1789L1218.56 66.187C1218.49 66.445 1218.45 66.7103 1218.44 66.9778C1218.44 67.6547 1218.66 68.312 1219.08 68.8495C1219.49 69.387 1220.06 69.7751 1220.71 69.9545ZM1177.12 -7.1783V41.3805L1135.1 65.6754V17.1166L1177.12 -7.1783ZM1091.51 42.2798L1133.55 18.0003V66.5746L1091.51 90.8541V42.2798ZM1089.96 92.6525V141.227L1047.93 116.932V69.939C1048.46 69.8068 1048.94 69.5395 1049.33 69.1638L1089.96 92.6525Z" fill="#54B2D3"/>
</g>
</g>
</g>
<defs>
<clipPath id="clip0_1997_2403">
<rect width="1440" height="804" fill="white"/>
</clipPath>
</defs>
</svg>
