<svg width="203" height="40" viewBox="0 0 203 40" fill="none" xmlns="http://www.w3.org/2000/svg">
<path d="M26.6958 16.9405L26.655 19.7727L24.2891 18.4848V15.7051L24.3182 15.7226L26.6958 16.9405Z" fill="#051842"/>
<path d="M36.94 28.5022L29.4401 32.832L25.8562 34.9008V30.8507L29.4401 28.7819L35.9494 25.0232V29.0558L36.94 28.5022Z" fill="#0A2E64"/>
<path d="M39.534 9.45801V27.0453L37.0981 28.4148L36.9408 28.5022L35.9501 29.0558V14.2773L26.6553 19.7726L26.6961 16.9405L35.9209 11.5676L35.9967 11.5209L36.5387 11.2062L39.534 9.45801Z" fill="#0A2E82"/>
<path d="M38.0771 10.3204L35.921 11.5675L33.6657 10.3496L22.2439 4.17247L18.6309 2.21444L19.1845 1.88227L22.3721 0L39.534 9.45798" fill="#061D51"/>
<path d="M35.9207 11.5673L26.6958 16.9402L24.2949 15.7339L24.3182 15.7223L33.6655 10.3494L35.9207 11.5673Z" fill="#061D51"/>
<path d="M22.243 4.17228L15.8678 7.85524L12.1091 10.0231L8.53101 8.08833L12.2781 5.8739L19.1836 1.88208L18.63 2.21425L22.243 4.17228Z" fill="#041635"/>
<path d="M17.3251 22.4239L0 13.0533L3.74706 10.8389L20.909 20.2968L17.3251 22.4239Z" fill="#061D51"/>
<path d="M17.3252 39.8946L20.9091 37.8842V20.2969L17.3252 22.4239V39.8946Z" fill="#0A2E82"/>
<path d="M62.5318 21.2707C62.5318 23.7732 60.5008 25.3872 57.9801 25.3872H52.0684V11.2969H57.5812C60.0293 11.2969 62.0241 12.8927 62.0241 15.3227C62.0241 16.4833 61.5526 17.4081 60.7909 18.0791C61.8427 18.7501 62.5137 19.8381 62.5137 21.2526L62.5318 21.2707ZM55.2781 14.3253V16.8278H57.563C58.2884 16.8278 58.7962 16.3019 58.7962 15.5766C58.7962 14.8512 58.3065 14.3253 57.563 14.3253H55.2781ZM59.3039 21.035C59.3039 20.2552 58.778 19.693 57.9801 19.693H55.2781V22.395H57.9801C58.778 22.395 59.3039 21.8329 59.3039 21.0531V21.035Z" fill="#002B52"/>
<path d="M72.5965 22.2862V25.3872H64.3455V11.2969H67.5552V22.2862H72.5784H72.5965Z" fill="#002B52"/>
<path d="M72.7959 18.3511C72.7959 14.1984 76.0782 11.0249 80.1221 11.0249C84.1661 11.0249 87.4484 14.1984 87.4484 18.3511C87.4484 22.5039 84.1661 25.6774 80.1221 25.6774C76.0782 25.6774 72.7959 22.5039 72.7959 18.3511ZM84.2205 18.3511C84.2205 15.8305 82.4071 14.1621 80.1221 14.1621C77.8372 14.1621 76.0238 15.8305 76.0238 18.3511C76.0238 20.8718 77.8372 22.5402 80.1221 22.5402C82.4071 22.5402 84.2205 20.8718 84.2205 18.3511Z" fill="#002B52"/>
<path d="M88.8447 18.3511C88.8447 14.1984 91.9275 11.0249 96.171 11.0249C98.7279 11.0249 100.977 12.2943 102.21 14.2891L99.4351 15.903C98.8186 14.815 97.6036 14.1803 96.171 14.1803C93.6684 14.1803 92.0726 15.8486 92.0726 18.3693C92.0726 20.8899 93.6866 22.5583 96.171 22.5583C97.6036 22.5583 98.8186 21.9236 99.4351 20.8355L102.21 22.4495C100.995 24.4443 98.746 25.7136 96.171 25.7136C91.9275 25.7136 88.8447 22.5402 88.8447 18.3874V18.3511Z" fill="#002B52"/>
<path d="M111.639 25.3872L107.124 18.877V25.3872H103.914V11.2969H107.124V17.4081L111.421 11.2969H115.085L110.333 18.1516L115.284 25.3691H111.621L111.639 25.3872Z" fill="#002B52"/>
<path d="M130.789 25.3872H127.561V17.1905L123.916 23.1567H123.553L119.908 17.1905V25.3872H116.698V11.2969H119.908L123.734 17.5532L127.561 11.2969H130.789V25.3872Z" fill="#002B52"/>
<path d="M142.25 22.2862V25.3872H133.401V11.2969H142.159V14.3978H136.629V16.7372H141.652V19.8018H136.629V22.3044H142.268L142.25 22.2862Z" fill="#002B52"/>
<path d="M156.739 18.3511C156.739 22.3406 153.783 25.3872 149.903 25.3872H144.263V11.2969H149.903C153.783 11.2969 156.739 14.3616 156.739 18.333V18.3511ZM153.638 18.3511C153.638 15.9392 152.115 14.416 149.903 14.416H147.491V22.3044H149.903C152.115 22.3044 153.638 20.7811 153.638 18.3692V18.3511Z" fill="#002B52"/>
<path d="M173.931 15.6672C173.931 18.1335 172.081 20.0195 169.542 20.0195H165.825V25.3872H164.755V11.2969H169.542C172.081 11.2969 173.931 13.1647 173.931 15.6672ZM172.861 15.6672C172.861 13.7087 171.464 12.3124 169.542 12.3124H165.825V19.0039H169.542C171.464 19.0039 172.861 17.5895 172.861 15.6672Z" fill="black"/>
<path d="M182.273 19.6205H177.83V25.3872H176.76V11.2969H182.309C184.594 11.2969 186.48 13.1647 186.48 15.4678C186.48 17.3719 185.174 18.9858 183.379 19.4754L186.879 25.3872H185.646L182.273 19.6205ZM177.83 18.605H182.309C184.013 18.605 185.41 17.1905 185.41 15.4678C185.41 13.745 184.013 12.3124 182.309 12.3124H177.83V18.605Z" fill="black"/>
<path d="M188.492 18.3509C188.492 14.3251 191.684 11.0972 195.746 11.0972C199.808 11.0972 203 14.3432 203 18.3509C203 22.3585 199.808 25.6046 195.746 25.6046C191.684 25.6046 188.492 22.3585 188.492 18.3509ZM201.948 18.3509C201.948 14.8872 199.228 12.1127 195.746 12.1127C192.264 12.1127 189.544 14.8872 189.544 18.3509C189.544 21.8145 192.264 24.5891 195.746 24.5891C199.228 24.5891 201.948 21.8145 201.948 18.3509Z" fill="black"/>
</svg>
