<svg width="16" height="16" viewBox="0 0 16 16" fill="none" xmlns="http://www.w3.org/2000/svg">
<path d="M5.22917 11.5625C5.38194 11.3819 5.45833 11.1769 5.45833 10.9475C5.45833 10.7186 5.38194 10.5278 5.22917 10.375L3.6875 8.83333H9.66667C9.90278 8.83333 10.1006 8.75333 10.26 8.59333C10.42 8.43389 10.5 8.23611 10.5 8C10.5 7.76389 10.42 7.56583 10.26 7.40583C10.1006 7.24639 9.90278 7.16667 9.66667 7.16667H3.6875L5.22917 5.625C5.39583 5.45833 5.47917 5.26056 5.47917 5.03167C5.47917 4.80222 5.39583 4.60417 5.22917 4.4375C5.07639 4.27083 4.88528 4.1875 4.65583 4.1875C4.42694 4.1875 4.23611 4.26389 4.08333 4.41667L1.08333 7.41667C1 7.5 0.940833 7.59028 0.905833 7.6875C0.871388 7.78472 0.854166 7.88889 0.854166 8C0.854166 8.11111 0.871388 8.21528 0.905833 8.3125C0.940833 8.40972 1 8.5 1.08333 8.58333L4.08333 11.5833C4.26389 11.7639 4.46167 11.8436 4.67667 11.8225C4.89222 11.8019 5.07639 11.7153 5.22917 11.5625ZM13.8333 15.5C14.2917 15.5 14.6842 15.3369 15.0108 15.0108C15.3369 14.6842 15.5 14.2917 15.5 13.8333V2.16667C15.5 1.70833 15.3369 1.31583 15.0108 0.989167C14.6842 0.663055 14.2917 0.5 13.8333 0.5H8.83333C8.59722 0.5 8.39917 0.579722 8.23917 0.739167C8.07972 0.899167 8 1.09722 8 1.33333C8 1.56944 8.07972 1.76722 8.23917 1.92667C8.39917 2.08667 8.59722 2.16667 8.83333 2.16667H13.8333V13.8333H8.83333C8.59722 13.8333 8.39917 13.9133 8.23917 14.0733C8.07972 14.2328 8 14.4306 8 14.6667C8 14.9028 8.07972 15.1006 8.23917 15.26C8.39917 15.42 8.59722 15.5 8.83333 15.5H13.8333Z" fill="#141414"/>
</svg>
