<svg width="349" height="69" viewBox="0 0 349 69" fill="none" xmlns="http://www.w3.org/2000/svg">
<path d="M45.8097 29.07L45.7397 33.93L41.6797 31.7199V26.95L41.7297 26.9799L45.8097 29.07Z" fill="white"/>
<path d="M63.3891 48.9099L50.5191 56.3399L44.3691 59.8899V52.9399L50.5191 49.3899L61.6891 42.9399V49.8599L63.3891 48.9099Z" fill="white"/>
<path d="M67.8402 16.23V46.41L63.6602 48.76L63.3902 48.91L61.6902 49.86V24.5L45.7402 33.93L45.8102 29.07L61.6402 19.85L61.7702 19.77L62.7002 19.23L67.8402 16.23Z" fill="white"/>
<path d="M65.3407 17.71L61.6407 19.85L57.7707 17.76L38.1707 7.16L31.9707 3.8L32.9207 3.23L38.3907 0L67.8407 16.23" fill="white"/>
<path d="M61.6395 19.85L45.8095 29.07L41.6895 27L41.7295 26.98L57.7695 17.76L61.6395 19.85Z" fill="white"/>
<path d="M38.1706 7.15998L27.2306 13.48L20.7806 17.2L14.6406 13.88L21.0706 10.08L32.9206 3.22998L31.9706 3.79998L38.1706 7.15998Z" fill="white"/>
<path d="M29.73 38.4801L0 22.4001L6.43 18.6001L35.88 34.8301L29.73 38.4801Z" fill="white"/>
<path d="M29.7305 68.4601L35.8805 65.0101V34.8301L29.7305 38.4801V68.4601Z" fill="white"/>
<path d="M107.305 39.582C107.305 43.8764 103.82 46.6459 99.4943 46.6459H89.3496V22.4668H98.8097C103.011 22.4668 106.434 25.2052 106.434 29.3751C106.434 31.3667 105.625 32.9538 104.318 34.1051C106.123 35.2565 107.274 37.1236 107.274 39.5509L107.305 39.582ZM94.8576 27.6636V31.958H98.7785C100.023 31.958 100.895 31.0555 100.895 29.8108C100.895 28.566 100.054 27.6636 98.7785 27.6636H94.8576ZM101.766 39.1775C101.766 37.8394 100.863 36.8747 99.4943 36.8747H94.8576V41.5114H99.4943C100.863 41.5114 101.766 40.5467 101.766 39.2086V39.1775Z" fill="white"/>
<path d="M124.575 41.3247V46.6459H110.416V22.4668H115.924V41.3247H124.544H124.575Z" fill="white"/>
<path d="M124.918 34.5719C124.918 27.4458 130.55 22 137.49 22C144.429 22 150.062 27.4458 150.062 34.5719C150.062 41.6981 144.429 47.1438 137.49 47.1438C130.55 47.1438 124.918 41.6981 124.918 34.5719ZM144.523 34.5719C144.523 30.2464 141.411 27.3835 137.49 27.3835C133.569 27.3835 130.457 30.2464 130.457 34.5719C130.457 38.8974 133.569 41.7603 137.49 41.7603C141.411 41.7603 144.523 38.8974 144.523 34.5719Z" fill="white"/>
<path d="M152.459 34.5719C152.459 27.4458 157.749 22 165.031 22C169.419 22 173.277 24.1783 175.393 27.6014L170.632 30.3709C169.574 28.5038 167.489 27.4146 165.031 27.4146C160.737 27.4146 157.998 30.2776 157.998 34.603C157.998 38.9285 160.768 41.7914 165.031 41.7914C167.489 41.7914 169.574 40.7023 170.632 38.8352L175.393 41.6047C173.308 45.0278 169.45 47.2061 165.031 47.2061C157.749 47.2061 152.459 41.7603 152.459 34.6341V34.5719Z" fill="white"/>
<path d="M191.575 46.6459L183.826 35.4744V46.6459H178.318V22.4668H183.826V32.9538L191.201 22.4668H197.487L189.334 34.2296L197.83 46.6148H191.544L191.575 46.6459Z" fill="white"/>
<path d="M224.435 46.6459H218.896V32.5803L212.641 42.8184H212.019L205.764 32.5803V46.6459H200.256V22.4668H205.764L212.33 33.2027L218.896 22.4668H224.435V46.6459Z" fill="white"/>
<path d="M244.102 41.3247V46.6459H228.916V22.4668H243.946V27.7881H234.455V31.8024H243.075V37.0614H234.455V41.3558H244.133L244.102 41.3247Z" fill="white"/>
<path d="M268.966 34.5719C268.966 41.418 263.894 46.6459 257.235 46.6459H247.557V22.4668H257.235C263.894 22.4668 268.966 27.7258 268.966 34.5408V34.5719ZM263.645 34.5719C263.645 30.4332 261.031 27.8192 257.235 27.8192H253.096V41.3558H257.235C261.031 41.3558 263.645 38.7418 263.645 34.6031V34.5719Z" fill="white"/>
<path d="M298.467 29.9664C298.467 34.1985 295.293 37.4348 290.936 37.4348H284.557V46.6459H282.721V22.4668H290.936C295.293 22.4668 298.467 25.672 298.467 29.9664ZM296.631 29.9664C296.631 26.6056 294.235 24.2094 290.936 24.2094H284.557V35.6922H290.936C294.235 35.6922 296.631 33.2649 296.631 29.9664Z" fill="white"/>
<path d="M312.78 36.7502H305.156V46.6459H303.32V22.4668H312.843C316.764 22.4668 320 25.672 320 29.6241C320 32.8915 317.759 35.6611 314.679 36.5013L320.684 46.6459H318.568L312.78 36.7502ZM305.156 35.0076H312.843C315.768 35.0076 318.164 32.5803 318.164 29.6241C318.164 26.6678 315.768 24.2094 312.843 24.2094H305.156V35.0076Z" fill="white"/>
<path d="M323.455 34.5719C323.455 27.6636 328.932 22.1245 335.903 22.1245C342.873 22.1245 348.35 27.6947 348.35 34.5719C348.35 41.4492 342.873 47.0194 335.903 47.0194C328.932 47.0194 323.455 41.4492 323.455 34.5719ZM346.545 34.5719C346.545 28.6283 341.877 23.8671 335.903 23.8671C329.928 23.8671 325.26 28.6283 325.26 34.5719C325.26 40.5156 329.928 45.2767 335.903 45.2767C341.877 45.2767 346.545 40.5156 346.545 34.5719Z" fill="white"/>
</svg>
