<svg width="109" height="109" viewBox="0 0 109 109" fill="none" xmlns="http://www.w3.org/2000/svg">
<path d="M54.5 0L62.5994 3.36244L71.3414 2.66742L78.0054 8.36814L86.5343 10.4086L91.1105 17.8895L98.5914 22.4657L100.632 30.9946L106.333 37.6586L105.638 46.4006L109 54.5L105.638 62.5994L106.333 71.3414L100.632 78.0054L98.5914 86.5343L91.1105 91.1105L86.5343 98.5914L78.0054 100.632L71.3414 106.333L62.5994 105.638L54.5 109L46.4006 105.638L37.6586 106.333L30.9946 100.632L22.4657 98.5914L17.8895 91.1105L10.4086 86.5343L8.36814 78.0054L2.66742 71.3414L3.36244 62.5994L0 54.5L3.36244 46.4006L2.66742 37.6586L8.36814 30.9946L10.4086 22.4657L17.8895 17.8895L22.4657 10.4086L30.9946 8.36814L37.6586 2.66742L46.4006 3.36244L54.5 0Z" fill="url(#paint0_linear_2_7310)"/>
<path d="M37 59.266L44.5137 68.9264C44.7673 69.2559 45.0922 69.5237 45.464 69.7097C45.8358 69.8955 46.2449 69.9948 46.6605 69.9998C47.0695 70.0048 47.4744 69.9181 47.8457 69.7469C48.2171 69.5754 48.5456 69.3233 48.8073 69.009L72.7797 40" stroke="white" stroke-width="7" stroke-linecap="round" stroke-linejoin="round"/>
<defs>
<linearGradient id="paint0_linear_2_7310" x1="0" y1="0" x2="122.633" y2="18.4674" gradientUnits="userSpaceOnUse">
<stop stop-color="#2FAEF5"/>
<stop offset="1" stop-color="#1140FF"/>
</linearGradient>
</defs>
</svg>